<?xml version="1.0" encoding="UTF-8" standalone="no"?>
<!-- Created with Inkscape (http://www.inkscape.org/) -->

<svg
   version="1.1"
   id="svg9"
   width="1149.2958"
   height="1149.2958"
   viewBox="0 0 1149.2958 1149.2958"
   sodipodi:docname="au-logo-shadow.svg"
   inkscape:version="1.2.1 (9c6d41e410, 2022-07-14)"
   xmlns:inkscape="http://www.inkscape.org/namespaces/inkscape"
   xmlns:sodipodi="http://sodipodi.sourceforge.net/DTD/sodipodi-0.dtd"
   xmlns="http://www.w3.org/2000/svg"
   xmlns:svg="http://www.w3.org/2000/svg">
  <defs
     id="defs13" />
  <sodipodi:namedview
     id="namedview11"
     pagecolor="#ffffff"
     bordercolor="#666666"
     borderopacity="1.0"
     inkscape:pageshadow="2"
     inkscape:pageopacity="0.0"
     inkscape:pagecheckerboard="0"
     showgrid="false"
     inkscape:zoom="0.78536271"
     inkscape:cx="429.73774"
     inkscape:cy="637.28516"
     inkscape:window-width="1920"
     inkscape:window-height="1046"
     inkscape:window-x="0"
     inkscape:window-y="18"
     inkscape:window-maximized="1"
     inkscape:current-layer="g15"
     inkscape:showpageshadow="2"
     inkscape:deskcolor="#d1d1d1" />
  <g
     inkscape:groupmode="layer"
     inkscape:label="Image"
     id="g15">
    <g
       id="g821">
      <path
         style="display:inline;fill:#a09da1;stroke-width:3.38028"
         d="m 86.822429,815.83651 c -1.273464,-1.27345 -2.315385,-5.2465 -2.315385,-8.82902 0,-3.67082 -2.950597,-7.28522 -6.760563,-8.28156 -3.71831,-0.97237 -6.760564,-3.34512 -6.760564,-5.2728 0,-6.80183 223.944133,-474.07499 229.200973,-478.24186 3.9037,-3.0943 25.48728,-4.22535 80.63136,-4.22535 h 75.30078 l 13.05374,17.74648 c 7.17954,9.76057 17.34862,27.63381 22.59789,39.71831 5.24927,12.08451 28.32575,60.51712 51.2811,107.62804 22.95533,47.11092 41.73699,86.27858 41.73699,87.03928 0,0.7607 9.29939,20.77879 20.66535,44.48464 11.36592,23.70585 25.91091,54.12974 32.32215,67.60861 l 11.6568,24.50705 h 15.22401 c 20.42008,0 28.3007,-4.65621 28.3007,-16.72131 0,-5.68814 -34.41306,-82.38044 -82.92865,-184.81322 -45.61075,-96.2997 -82.47824,-177.43428 -81.92772,-180.29905 0.85649,-4.45731 11.23453,-5.34667 71.9427,-6.16524 39.01802,-0.5261 73.98409,-0.19396 77.7024,0.73813 6.9861,1.75122 24.13356,26.245 30.88915,44.12267 2.11579,5.59913 9.4295,23.10984 16.2527,38.91266 6.82324,15.80281 20.11437,47.74648 29.53589,70.98591 27.38245,67.5425 35.94764,82.20163 40.98264,70.14085 24.31825,-58.25206 98.25864,-220.96942 101.28399,-222.89129 2.28483,-1.45145 36.17395,-2.66229 75.30916,-2.69076 70.65648,-0.0514 81.05218,1.5053 77.19408,11.55934 -0.8498,2.21471 1.5507,6.82848 5.3346,10.25285 3.7839,3.42436 6.8798,8.43487 6.8798,11.13443 0,4.39129 -12.8446,32.14854 -25.3997,54.88895 -2.5662,4.64789 -7.9853,16.05634 -12.0425,25.35211 -4.0573,9.29578 -16.1628,35.15493 -26.90112,57.46479 C 949.15226,581.2334 932.64485,616.03506 916.0953,652.39438 872.07693,749.10262 843.96083,784.0501 793.51398,804.7593 l -29.83861,8.79546 -106.58375,3.7707 -108.54223,1.12097 -11.20199,-11.87625 C 529.88165,798.65501 505.13112,750.38757 463.14004,661.854 428.48709,588.79205 398.22366,525.49336 395.88795,521.1902 c -5.95301,-10.96736 -11.20573,-5.60437 -23.61694,24.11263 -5.57602,13.35106 -26.69815,58.5 -46.93803,100.33099 -20.23989,41.83098 -42.75964,88.98591 -50.04387,104.78873 -7.28424,15.80282 -17.88798,37.09859 -23.56387,47.32395 l -10.3198,18.59155 -76.13381,0.90693 c -41.8736,0.49882 -77.175741,-0.13488 -78.449201,-1.40847 z M 361.7997,775.1751 c -16.09355,-8.30825 -19.93788,-12.3794 -29.74802,-31.50297 -15.23333,-29.6954 -18.07134,-43.85348 -12.50075,-62.36312 8.22297,-27.32289 22.11267,-40.447 49.87151,-47.12272 22.8791,-5.50215 56.20554,12.63543 66.9428,36.43298 3.44633,7.63829 9.34005,18.45117 13.09717,24.02863 21.3791,31.73757 -10.3224,84.78781 -52.95265,88.61253 -13.02626,1.1687 -19.87457,-0.42652 -34.71006,-8.08533 z"
         id="path835"
         sodipodi:nodetypes="sssssscsssssscsssssssssssssssssssscccssssssscssssssssss" />
      <path
         style="display:inline;fill:#c1006e;stroke-width:3.38028"
         d="m 96.901412,809.01409 c -1.239438,-1.23941 -2.253523,-4.74858 -2.253523,-7.79814 0,-3.04959 -3.716261,-6.97917 -8.258363,-8.73242 -8.242624,-3.18165 -8.053791,-3.61612 99.090444,-227.97648 59.04184,-123.6338 109.9668,-229.76082 113.16657,-235.83781 l 5.81775,-11.04907 76.78194,0.90823 76.78195,0.90823 17.01113,33.80281 c 9.35611,18.59155 50.42654,104.3276 91.26761,190.52458 81.33539,171.66214 76.8694,164.86642 106.23577,161.654 16.4118,-1.79533 27.17564,-11.21053 27.17564,-23.77078 0,-3.94969 -37.26761,-85.87153 -82.81691,-182.04849 -45.54929,-96.17699 -82.8169,-176.43888 -82.8169,-178.35976 0,-2.2969 25.16887,-3.48359 73.52113,-3.46647 l 73.52113,0.026 7.2004,12.65002 c 3.9602,6.95751 21.90747,47.63594 39.8828,90.3965 49.57119,117.92252 56.85427,133.79805 60.81559,132.56472 5.31661,-1.65529 14.58193,-20.86983 58.21816,-120.73373 21.52786,-49.26761 42.04563,-95.28169 45.5951,-102.25352 l 6.45353,-12.67606 h 72.97379 72.97385 l -2.1248,8.46563 c -1.2932,5.15276 -0.1217,11.5225 2.9936,16.27712 4.779,7.29367 4.2016,9.70148 -8.7091,36.32309 -7.605,15.68139 -48.04102,100.68771 -89.85781,188.90295 -41.81679,88.21522 -80.32989,166.64025 -85.58468,174.27783 -21.11006,30.68241 -49.34123,49.03694 -94.63325,61.52583 -18.81722,5.1887 -36.23493,6.05855 -121.31429,6.05855 -94.97672,0 -99.50752,-0.28969 -103.09859,-6.59547 -2.06586,-3.62752 -6.29385,-8.95146 -9.39553,-11.83099 -3.10168,-2.87952 -34.74135,-66.84114 -70.31044,-142.13692 -35.56904,-75.29578 -66.62089,-138.87327 -69.00405,-141.28331 -3.54572,-3.58566 -5.56273,-3.27856 -11.10054,1.69015 -3.72213,3.33961 -36.92265,69.95935 -73.77897,148.04386 -36.85629,78.08451 -69.2881,144.63381 -72.07068,147.88733 -4.50033,5.26198 -12.40762,5.91549 -71.57759,5.91549 -36.58509,0 -67.532434,-1.01408 -68.771868,-2.25353 z m 272.943628,-39.54 c -11.07427,-5.03189 -31.02591,-27.53314 -39.37224,-44.40365 -8.51838,-17.21824 -9.44311,-27.17845 -4.17144,-44.9301 11.67341,-39.30862 57.55292,-52.39633 89.48547,-25.52684 5.75324,4.841 15.06973,18.87144 20.70331,31.17871 15.67335,34.24043 11.02935,60.00737 -14.21172,78.85254 -11.14976,8.32448 -39.07957,10.89695 -52.43338,4.82934 z"
         id="path831" />
      <path
         style="display:inline;fill:#5f368b;stroke-width:3.38028"
         d="m 96.901412,809.01409 c -1.239438,-1.23941 -2.253523,-4.74858 -2.253523,-7.79814 0,-3.04959 -3.698501,-6.97917 -8.218894,-8.73242 L 78.2101,789.29579 132.18547,676.05635 C 294.74736,335.00417 301.84382,320.66567 305.8466,325.17152 c 2.15271,2.42327 18.85292,36.34961 37.11158,75.39187 18.25866,39.04225 34.9726,73.26761 37.14213,76.05634 2.1695,2.78873 5.8439,9.50961 8.16531,14.9353 3.82263,8.93439 3.45881,10.52863 -3.8569,16.90141 -4.72932,4.11979 -35.85462,65.88622 -75.08813,149.00836 -36.85577,78.08451 -69.28714,144.63381 -72.06972,147.88733 -4.50033,5.26198 -12.40762,5.91549 -71.57759,5.91549 -36.58509,0 -67.532434,-1.01408 -68.771868,-2.25353 z m 448.169018,-1.57487 c -2.32394,-2.35636 -4.22535,-7.0223 -4.22535,-10.36878 0,-5.6613 4.82005,-6.08451 69.29578,-6.08451 41.95278,0 69.29577,-1.27869 69.29577,-3.24064 0,-1.78232 -7.60563,-19.48722 -16.9014,-39.34415 -9.29578,-19.85695 -16.90141,-37.79303 -16.90141,-39.85798 0,-2.34125 7.74639,-3.75441 20.58034,-3.75441 17.55042,0 21.53171,-1.17485 27.04225,-7.9801 3.55406,-4.3891 6.46192,-11.21169 6.46192,-15.16141 0,-3.94969 -37.26761,-85.87153 -82.81691,-182.04849 -45.54929,-96.17699 -82.8169,-176.43888 -82.8169,-178.35976 0,-2.2969 25.16887,-3.48359 73.52113,-3.46647 l 73.52113,0.026 7.2004,12.65002 c 3.9602,6.95751 21.90747,47.63594 39.8828,90.3965 49.57119,117.92252 56.85427,133.79805 60.81559,132.56472 5.31661,-1.65529 14.58193,-20.86983 58.21816,-120.73373 21.52786,-49.26761 42.04563,-95.28169 45.5951,-102.25352 l 6.45353,-12.67606 h 72.97379 72.97385 l -2.1248,8.46563 c -1.2932,5.15276 -0.1217,11.5225 2.9936,16.27712 4.779,7.29367 4.2016,9.70148 -8.7091,36.32309 -7.605,15.68139 -48.04102,100.68771 -89.85781,188.90295 -41.81679,88.21522 -80.32989,166.64025 -85.58468,174.27783 -20.73671,30.13981 -48.65817,48.54267 -92.94311,61.25831 -26.71842,7.67172 -216.9983,11.22998 -223.94367,4.1878 z M 369.84504,769.47409 c -11.07427,-5.03189 -31.02591,-27.53314 -39.37224,-44.40365 -8.51838,-17.21824 -9.44311,-27.17845 -4.17144,-44.9301 11.67341,-39.30862 57.55292,-52.39633 89.48547,-25.52684 5.75324,4.841 15.06973,18.87144 20.70331,31.17871 15.67335,34.24043 11.02935,60.00737 -14.21172,78.85254 -11.14976,8.32448 -39.07957,10.89695 -52.43338,4.82934 z"
         id="path829" />
      <path
         style="display:inline;fill:#5c5a5c;stroke-width:3.38028"
         d="m 95.932403,806.35908 c -1.035972,-2.69973 -1.012921,-6.31734 0.05121,-8.03915 1.064146,-1.72182 -2.556115,-4.02879 -8.045027,-5.12657 L 77.958749,791.1974 90.941508,763.20434 C 112.07254,717.6422 282.05379,361.73007 292.92794,340.27873 c 7.56573,-14.92484 10.81916,-18.62438 13.377,-15.21126 1.85892,2.4805 18.33581,36.45366 36.6153,75.49592 18.27952,39.04225 35.01053,73.26761 37.18006,76.05634 2.1695,2.78873 5.8439,9.50961 8.16531,14.9353 3.82262,8.93439 3.4588,10.52863 -3.85691,16.90141 -4.72931,4.11979 -35.85461,65.88622 -75.08813,149.00836 -36.85576,78.08451 -69.28714,144.63381 -72.06971,147.88733 -4.5035,5.2657 -12.4395,5.91549 -72.24706,5.91549 -55.61948,0 -67.512137,-0.84513 -69.07141,-4.90854 z m 449.138027,1.08014 c -2.32394,-2.35636 -4.22535,-7.0223 -4.22535,-10.36878 0,-5.6613 4.82005,-6.08451 69.29578,-6.08451 41.95278,0 69.29577,-1.27869 69.29577,-3.24064 0,-1.78232 -7.60563,-19.48722 -16.9014,-39.34415 -9.29578,-19.85695 -16.90141,-37.0727 -16.90141,-38.25715 0,-1.18448 6.09931,-1.57196 13.55405,-0.86102 26.19962,2.49853 43.91074,-7.92984 43.91074,-25.85483 0,-5.43894 -35.54975,-84.53071 -82.81691,-184.2526 -45.54929,-96.09763 -82.8169,-175.47127 -82.8169,-176.38587 0,-0.9146 31.91273,-1.6629 70.91723,-1.6629 h 70.9172 l 6.44281,12.67605 c 3.54359,6.97184 25.83005,59.07043 49.52553,115.77465 23.69547,56.70423 45.26325,105.38029 47.92844,108.16902 4.29022,4.48912 5.54633,4.21667 10.9563,-2.3762 3.36078,-4.09565 13.28055,-23.8703 22.04397,-43.94366 8.76341,-20.07337 31.20524,-71.10268 49.87075,-113.39845 l 33.93725,-76.90141 h 70.47759 70.47763 l -3.2967,8.67076 c -4.7576,12.51353 -4.2265,16.59073 1.5381,11.80658 3.8547,-3.1991 5.5448,-2.6856 8.3379,2.53338 2.7884,5.21013 0.7006,12.32458 -10.2316,34.86612 -7.5541,15.57621 -47.94852,100.49642 -89.76531,188.71167 -41.81679,88.21521 -80.32989,166.64025 -85.58468,174.27783 -20.73671,30.13981 -48.65817,48.54267 -92.94311,61.25831 -26.71842,7.67172 -216.9983,11.22997 -223.94367,4.1878 z M 369.84504,769.47409 c -11.07427,-5.03189 -31.02591,-27.53314 -39.37224,-44.40365 -8.51838,-17.21824 -9.44311,-27.17845 -4.17144,-44.9301 11.95701,-40.26365 58.52161,-52.57213 91.00142,-24.05449 6.36913,5.59217 13.42486,15.79579 15.67944,22.67466 2.25454,6.87891 6.34141,15.95439 9.08187,20.16771 3.41689,5.25329 4.4664,13.03365 3.33975,24.75887 -2.69631,28.06101 -20.47464,46.04904 -48.26867,48.83797 -10.661,1.06976 -20.6882,-0.0514 -27.29013,-3.05097 z"
         id="path827" />
      <path
         style="display:inline;fill:#8f045a;stroke-width:3.38028"
         d="m 93.765491,794.50352 c -6.992363,-1.356 -13.31247,-3.08248 -14.044682,-3.83662 -1.27821,-1.31645 39.583781,-88.06935 164.325901,-348.87567 45.2434,-94.59326 58.7407,-120.06338 61.79989,-116.61971 2.15271,2.42327 18.85292,36.34961 37.11158,75.39187 18.25866,39.04225 34.9726,73.26761 37.14213,76.05634 5.73763,7.37523 12.5448,24.25629 10.57535,26.22575 -0.92958,0.92957 -3.51238,-2.30924 -5.73955,-7.19737 -2.2272,-4.88816 -5.72782,-8.88754 -7.77914,-8.88754 -2.05136,0 -34.79463,65.47174 -72.76286,145.49274 -37.96822,80.021 -71.76981,149.99284 -75.11464,155.49296 l -6.0815,10.00023 -58.35955,-0.38874 c -32.09775,-0.21363 -64.08057,-1.4982 -71.072929,-2.85424 z m 447.079589,0.25525 c 0,-2.65423 20.54532,-3.77284 69.29578,-3.77284 41.95278,0 69.29577,-1.27869 69.29577,-3.24064 0,-1.78232 -7.60563,-19.48722 -16.9014,-39.34415 -9.29578,-19.85695 -16.90141,-37.0727 -16.90141,-38.25715 0,-1.18448 6.09931,-1.57196 13.55405,-0.86102 26.19962,2.49853 43.91074,-7.92984 43.91074,-25.85483 0,-5.43894 -35.54975,-84.53071 -82.81691,-184.2526 -45.54929,-96.09763 -82.8169,-175.47127 -82.8169,-176.38587 0,-0.9146 31.91273,-1.6629 70.91723,-1.6629 h 70.9172 l 6.44281,12.67605 c 3.54359,6.97184 25.83005,59.07043 49.52553,115.77465 23.69547,56.70423 45.26325,105.38029 47.92844,108.16902 4.29022,4.48912 5.54633,4.21667 10.9563,-2.3762 3.36078,-4.09565 13.28055,-23.8703 22.04397,-43.94366 8.76341,-20.07337 31.20524,-71.10268 49.87075,-113.39845 l 33.93725,-76.90141 h 70.47759 70.47763 l -3.2967,8.67076 c -1.8131,4.76891 -3.2966,11.75351 -3.2966,15.52134 0,6.29993 -75.01046,167.20263 -150.24539,322.28678 -34.26021,70.62166 -46.77235,86.43384 -82.8693,104.72552 -38.19323,19.35397 -60.82891,22.72175 -164.91347,24.53598 -69.02664,1.20314 -95.49296,0.61883 -95.49296,-2.10838 z M 354.99695,751.26238 c -13.45609,-6.76059 -25.59884,-23.23916 -30.47878,-41.3619 -2.51591,-9.34341 -2.07758,-16.75947 1.75295,-29.65829 16.10173,-54.22043 89.89518,-52.22005 108.21424,2.93348 7.18391,21.62869 4.45751,36.6818 -9.52884,52.61141 -18.62654,21.21445 -46.3364,27.34398 -69.95957,15.4753 z"
         id="path825" />
      <path
         style="display:inline;fill:#461578;stroke-width:3.38028"
         d="m 686.1972,792.92564 c 0,-2.87662 -8.26073,-22.74335 -18.35716,-44.14834 l -18.3572,-38.91813 h 15.14478 c 25.15582,0 38.47099,-9.82868 38.47099,-28.39765 0,-4.15963 -37.26761,-86.18832 -82.81691,-182.28598 -45.54929,-96.09763 -82.8169,-175.47127 -82.8169,-176.38587 0,-0.9146 31.91273,-1.6629 70.91723,-1.6629 h 70.9172 l 6.44281,12.67605 c 3.54359,6.97184 25.83005,59.07043 49.52553,115.77465 23.69547,56.70423 45.26325,105.38029 47.92844,108.16902 4.29022,4.48912 5.54633,4.21667 10.9563,-2.3762 3.36078,-4.09565 13.28055,-23.8703 22.04397,-43.94366 8.76341,-20.07337 31.20524,-71.10268 49.87075,-113.39845 l 33.93725,-76.90141 h 70.47759 70.47763 l -3.2967,8.67076 c -1.8131,4.76891 -3.2966,11.75351 -3.2966,15.52134 0,6.29993 -75.01046,167.20263 -150.24539,322.28678 -26.58446,54.79947 -33.65493,66.5401 -48.17605,79.99731 -29.40858,27.25392 -70.25905,42.98167 -125.24052,48.21864 -20.86905,1.98774 -24.50704,1.55787 -24.50704,-2.89596 z"
         id="path823" />
    </g>
  </g>
</svg>
